HIERARCHY
ROOT reference
{
  OFFSET 0 0 0
  CHANNELS 6 Xposition Yposition Zposition Zrotation Xrotation Yrotation
  JOINT Hips
  {
    OFFSET 349.773 89.4622 219.413
    CHANNELS 3 Zrotation Xrotation Yrotation
    JOINT RightUpLeg
    {
      OFFSET -9.25229 -1.56476 -0.00486621
      CHANNELS 3 Zrotation Xrotation Yrotation
      JOINT RightLeg
      {
        OFFSET 0.0546168 -41.8841 0.068862
        CHANNELS 3 Zrotation Xrotation Yrotation
        JOINT RightFoot
        {
          OFFSET -1.63893 -40.8901 3.53979
          CHANNELS 3 Zrotation Xrotation Yrotation
          End Site
          {
            OFFSET 0 -7.69 17.5
          }
        }
      }
    }
    JOINT LeftUpLeg
    {
      OFFSET 9.30241 -1.63853 -0.0284428
      CHANNELS 3 Zrotation Xrotation Yrotation
      JOINT LeftLeg
      {
        OFFSET 0.0539686 -41.842 -0.0517406
        CHANNELS 3 Zrotation Xrotation Yrotation
        JOINT LeftFoot
        {
          OFFSET 1.12518 -42.5382 -2.5849
          CHANNELS 3 Zrotation Xrotation Yrotation
          End Site
          {
            OFFSET 0 -7.69 17.5
          }
        }
      }
    }
    JOINT Spine
    {
      OFFSET 0.0144198 14.3187 0.0981135
      CHANNELS 3 Zrotation Xrotation Yrotation
      JOINT Spine1
      {
        OFFSET 0.0112165 9.7169 0.0514987
        CHANNELS 3 Zrotation Xrotation Yrotation
        JOINT Spine2
        {
          OFFSET 0.0255827 10.1205 -0.00638435
          CHANNELS 3 Zrotation Xrotation Yrotation
          JOINT Spine3
          {
            OFFSET -0.00190646 9.72552 0.024249
            CHANNELS 3 Zrotation Xrotation Yrotation
            JOINT Neck
            {
              OFFSET -0.136438 10.3681 0.0553958
              CHANNELS 3 Zrotation Xrotation Yrotation
              JOINT Head
              {
                OFFSET 0.0264476 9.5071 0.170402
                CHANNELS 3 Zrotation Xrotation Yrotation
                End Site
                {
                  OFFSET 0 15.95 0
                }
              }
            }
            JOINT RightShoulder
            {
              OFFSET -3.1747 6.92483 0.00547946
              CHANNELS 3 Zrotation Xrotation Yrotation
              JOINT RightArm
              {
                OFFSET -12.7755 -0.0136287 0.0362428
                CHANNELS 3 Zrotation Xrotation Yrotation
                JOINT RightForeArm
                {
                  OFFSET -26.5642 -0.108975 -0.0233747
                  CHANNELS 3 Zrotation Xrotation Yrotation
                  JOINT RightHand
                  {
                    OFFSET -25.905 -0.185223 0.00356295
                    CHANNELS 3 Zrotation Xrotation Yrotation
                    JOINT RightHandThumb1
                    {
                      OFFSET -2.48905 0.190105 3.12053
                      CHANNELS 3 Zrotation Xrotation Yrotation
                      JOINT RightHandThumb2
                      {
                        OFFSET -3.68274 0 0
                        CHANNELS 3 Zrotation Xrotation Yrotation
                        JOINT RightHandThumb3
                        {
                          OFFSET -2.55832 0 0
                          CHANNELS 3 Zrotation Xrotation Yrotation
                          End Site
                          {
                            OFFSET -2.194 0 0
                          }
                        }
                      }
                    }
                    JOINT RightInHandIndex
                    {
                      OFFSET -3.22368 0.508421 1.97842
                      CHANNELS 3 Zrotation Xrotation Yrotation
                      JOINT RightHandIndex1
                      {
                        OFFSET -5.21684 -0.091368 0.999158
                        CHANNELS 3 Zrotation Xrotation Yrotation
                        JOINT RightHandIndex2
                        {
                          OFFSET -3.61937 0 0
                          CHANNELS 3 Zrotation Xrotation Yrotation
                          JOINT RightHandIndex3
                          {
                            OFFSET -2.0521 0 0
                            CHANNELS 3 Zrotation Xrotation Yrotation
                            End Site
                            {
                              OFFSET -1.805 0 0
                            }
                          }
                        }
                      }
                    }
                    JOINT RightInHandMiddle
                    {
                      OFFSET -3.38211 0.517263 0.756737
                      CHANNELS 3 Zrotation Xrotation Yrotation
                      JOINT RightHandMiddle1
                      {
                        OFFSET -5.17411 -0.084 0.313895
                        CHANNELS 3 Zrotation Xrotation Yrotation
                        JOINT RightHandMiddle2
                        {
                          OFFSET -3.94947 0 0
                          CHANNELS 3 Zrotation Xrotation Yrotation
                          JOINT RightHandMiddle3
                          {
                            OFFSET -2.47579 0 0
                            CHANNELS 3 Zrotation Xrotation Yrotation
                            End Site
                            {
                              OFFSET -1.975 0 0
                            }
                          }
                        }
                      }
                    }
                    JOINT RightInHandRing
                    {
                      OFFSET -3.36516 0.537895 -0.128947
                      CHANNELS 3 Zrotation Xrotation Yrotation
                      JOINT RightHandRing1
                      {
                        OFFSET -4.63474 -0.022105 -0.478947
                        CHANNELS 3 Zrotation Xrotation Yrotation
                        JOINT RightHandRing2
                        {
                          OFFSET -3.44238 0 0
                          CHANNELS 3 Zrotation Xrotation Yrotation
                          JOINT RightHandRing3
                          {
                            OFFSET -2.3881 0 0
                            CHANNELS 3 Zrotation Xrotation Yrotation
                            End Site
                            {
                              OFFSET -1.857 0 0
                            }
                          }
                        }
                      }
                    }
                    JOINT RightInHandPinky
                    {
                      OFFSET -3.16105 0.469368 -1.20179
                      CHANNELS 3 Zrotation Xrotation Yrotation
                      JOINT RightHandPinky1
                      {
                        OFFSET -4.14105 -0.022105 -1.09053
                        CHANNELS 3 Zrotation Xrotation Yrotation
                        JOINT RightHandPinky2
                        {
                          OFFSET -2.75653 0 0
                          CHANNELS 3 Zrotation Xrotation Yrotation
                          JOINT RightHandPinky3
                          {
                            OFFSET -1.74189 0 0
                            CHANNELS 3 Zrotation Xrotation Yrotation
                            End Site
                            {
                              OFFSET -1.645 0 0
                            }
                          }
                        }
                      }
                    }
                  }
                }
              }
            }
            JOINT LeftShoulder
            {
              OFFSET 3.23079 6.93624 -0.032633
              CHANNELS 3 Zrotation Xrotation Yrotation
              JOINT LeftArm
              {
                OFFSET 12.8235 -0.00564763 -0.0637926
                CHANNELS 3 Zrotation Xrotation Yrotation
                JOINT LeftForeArm
                {
                  OFFSET 26.4641 -0.00020372 -0.0407631
                  CHANNELS 3 Zrotation Xrotation Yrotation
                  JOINT LeftHand
                  {
                    OFFSET 25.9912 -0.0207868 -0.0178714
                    CHANNELS 3 Zrotation Xrotation Yrotation
                    JOINT LeftHandThumb1
                    {
                      OFFSET 2.48905 0.190105 3.12053
                      CHANNELS 3 Zrotation Xrotation Yrotation
                      JOINT LeftHandThumb2
                      {
                        OFFSET 3.68274 0 0
                        CHANNELS 3 Zrotation Xrotation Yrotation
                        JOINT LeftHandThumb3
                        {
                          OFFSET 2.55832 0 0
                          CHANNELS 3 Zrotation Xrotation Yrotation
                          End Site
                          {
                            OFFSET 2.194 0 0
                          }
                        }
                      }
                    }
                    JOINT LeftInHandIndex
                    {
                      OFFSET 3.22368 0.508421 1.97842
                      CHANNELS 3 Zrotation Xrotation Yrotation
                      JOINT LeftHandIndex1
                      {
                        OFFSET 5.21684 -0.091368 0.999158
                        CHANNELS 3 Zrotation Xrotation Yrotation
                        JOINT LeftHandIndex2
                        {
                          OFFSET 3.61937 0 0
                          CHANNELS 3 Zrotation Xrotation Yrotation
                          JOINT LeftHandIndex3
                          {
                            OFFSET 2.0521 0 0
                            CHANNELS 3 Zrotation Xrotation Yrotation
                            End Site
                            {
                              OFFSET 1.805 0 0
                            }
                          }
                        }
                      }
                    }
                    JOINT LeftInHandMiddle
                    {
                      OFFSET 3.38211 0.517263 0.756737
                      CHANNELS 3 Zrotation Xrotation Yrotation
                      JOINT LeftHandMiddle1
                      {
                        OFFSET 5.17411 -0.084 0.313895
                        CHANNELS 3 Zrotation Xrotation Yrotation
                        JOINT LeftHandMiddle2
                        {
                          OFFSET 3.94947 0 0
                          CHANNELS 3 Zrotation Xrotation Yrotation
                          JOINT LeftHandMiddle3
                          {
                            OFFSET 2.47579 0 0
                            CHANNELS 3 Zrotation Xrotation Yrotation
                            End Site
                            {
                              OFFSET 1.975 0 0
                            }
                          }
                        }
                      }
                    }
                    JOINT LeftInHandRing
                    {
                      OFFSET 3.36516 0.537895 -0.128947
                      CHANNELS 3 Zrotation Xrotation Yrotation
                      JOINT LeftHandRing1
                      {
                        OFFSET 4.63474 -0.022105 -0.478947
                        CHANNELS 3 Zrotation Xrotation Yrotation
                        JOINT LeftHandRing2
                        {
                          OFFSET 3.44238 0 0
                          CHANNELS 3 Zrotation Xrotation Yrotation
                          JOINT LeftHandRing3
                          {
                            OFFSET 2.3881 0 0
                            CHANNELS 3 Zrotation Xrotation Yrotation
                            End Site
                            {
                              OFFSET 1.857 0 0
                            }
                          }
                        }
                      }
                    }
                    JOINT LeftInHandPinky
                    {
                      OFFSET 3.16105 0.469368 -1.20179
                      CHANNELS 3 Zrotation Xrotation Yrotation
                      JOINT LeftHandPinky1
                      {
                        OFFSET 4.14105 -0.022105 -1.09053
                        CHANNELS 3 Zrotation Xrotation Yrotation
                        JOINT LeftHandPinky2
                        {
                          OFFSET 2.75653 0 0
                          CHANNELS 3 Zrotation Xrotation Yrotation
                          JOINT LeftHandPinky3
                          {
                            OFFSET 1.74189 0 0
                            CHANNELS 3 Zrotation Xrotation Yrotation
                            End Site
                            {
                              OFFSET 1.645 0 0
                            }
                          }
                        }
                      }
                    }
                  }
                }
              }
            }
          }
        }
      }
    }
  }
}
MOTION
Frames: 2
Frame Time: 0.00833333
6.000000000000000000e+02 0.000000000000000000e+00 0.000000000000000000e+00 0.000000000000000000e+00 0.000000000000000000e+00 0.000000000000000000e+00 1.294935137992470897e-01 -2.071141610450064341e-01 -1.295888707836232723e-01 -1.085515130518880794e-01 -5.677370378916283405e-02 2.618081277161691256e-01 -5.720943844567102053e-03 -1.677789707376681760e-01 7.700195550298135141e-03 -1.759393581627414216e-01 7.587280852384778451e-02 -1.371577661721377905e-01 1.320862462008286498e-01 1.291534399623152363e-01 2.643545995900732914e-01 -2.035573592214610372e-01 -1.478843036815668255e-01 1.330602521748559808e-01 5.902440728224007949e-02 -1.376509824445879687e-02 -4.240664249477701410e-03 -1.037446073917510786e-01 5.245732351364350288e-02 4.807058341153828129e-01 -2.346443866472716286e-02 1.838550846857679028e-02 1.300543899311993046e-01 -3.850565828766715215e-02 2.980456848070237377e-02 1.868463993641843734e-01 -5.762159147724228020e-03 1.046454608341661164e-03 -2.656776826592984961e-02 -4.281481742093170076e-03 6.744888042381933131e-03 -6.000233059043315054e-01 -6.474234693906491533e-02 3.513791559483879501e-02 -1.676800495294898941e-01 -2.141668750814949840e-01 2.701804604283734590e-01 -1.646191154622233810e-01 5.935010223646554062e-01 -3.990928796776785914e-01 -1.801547467077549147e-01 2.059137006604221387e+00 1.908308810890471108e+00 1.458082516900630843e+00 3.003071448607635419e-01 -2.164214885807077549e-01 -7.373550318314534557e-01 0.000000000000000000e+00 0.000000000000000000e+00 0.000000000000000000e+00 -4.381691073219190303e-16 1.338706064224426010e-15 0.000000000000000000e+00 1.327060583343690294e-15 -1.286922823573972295e-16 0.000000000000000000e+00 1.635205411166458484e-15 -3.417687951917321006e-15 -2.699828543533910091e-15 0.000000000000000000e+00 0.000000000000000000e+00 0.000000000000000000e+00 0.000000000000000000e+00 4.336118000869473326e-15 1.477797123883791675e-14 0.000000000000000000e+00 4.613346433567141809e-16 1.476889632030153390e-14 1.635205411166458484e-15 -3.417687951917321006e-15 -2.699828543533910091e-15 0.000000000000000000e+00 1.521616835686635024e-15 2.951824054472431885e-15 0.000000000000000000e+00 1.433974814668824585e-15 1.601023240405563350e-14 0.000000000000000000e+00 -1.075935738093184218e-15 -1.838229159550484620e-15 1.635205411166458484e-15 -3.417687951917321006e-15 -2.699828543533910091e-15 0.000000000000000000e+00 0.000000000000000000e+00 0.000000000000000000e+00 0.000000000000000000e+00 -3.311313301756830468e-16 1.071065429624528382e-14 0.000000000000000000e+00 6.167626316648007217e-15 1.086923078884433294e-14 1.635205411166458484e-15 -3.417687951917321006e-15 -2.699828543533910091e-15 0.000000000000000000e+00 0.000000000000000000e+00 0.000000000000000000e+00 0.000000000000000000e+00 -3.313364048329557377e-15 8.073896705310047885e-15 0.000000000000000000e+00 5.001294623000140986e-15 3.192524414704846954e-15 2.183091940844788248e-01 -1.896334044766290194e-01 -1.540507863298743452e-01 -3.904715768939562293e-01 7.425270965692970515e-01 1.012840733908573487e-01 -4.051948455927839809e+00 1.246276389739618962e+00 -4.012475214542146063e+00 2.634916859696267988e-01 -4.461163800051737294e-01 1.271890958699277707e-01 0.000000000000000000e+00 0.000000000000000000e+00 0.000000000000000000e+00 -3.562737302200349685e-15 -1.648131540634405628e-15 0.000000000000000000e+00 -1.234619283186788481e-15 -1.542094443597209837e-15 0.000000000000000000e+00 -4.276356103097787991e-15 1.823337908925323887e-15 -5.532849019816768658e-16 0.000000000000000000e+00 0.000000000000000000e+00 0.000000000000000000e+00 0.000000000000000000e+00 -3.658431988179523014e-15 -1.191909536367396032e-14 0.000000000000000000e+00 1.238284198767842960e-15 3.390585096529342386e-16 -4.276356103097787991e-15 1.823337908925323887e-15 -5.532849019816768658e-16 0.000000000000000000e+00 1.076367831465127271e-15 2.412911398559339952e-16 0.000000000000000000e+00 -1.244319271542782181e-15 -1.022167511585795858e-15 0.000000000000000000e+00 -2.811460876254750297e-15 7.024911228724940031e-16 -4.276356103097787991e-15 1.823337908925323887e-15 -5.532849019816768658e-16 0.000000000000000000e+00 0.000000000000000000e+00 0.000000000000000000e+00 0.000000000000000000e+00 5.291622045159048769e-15 4.225610507914043067e-15 0.000000000000000000e+00 -9.174852156796976614e-16 2.427111255473356263e-15 -4.276356103097787991e-15 1.823337908925323887e-15 -5.532849019816768658e-16 0.000000000000000000e+00 0.000000000000000000e+00 0.000000000000000000e+00 0.000000000000000000e+00 -1.964513715279189085e-15 -7.731038471864236262e-16 0.000000000000000000e+00 -1.893321691182121733e-15 -2.955781944447908324e-15
6.000000000000000000e+02 0.000000000000000000e+00 0.000000000000000000e+00 0.000000000000000000e+00 0.000000000000000000e+00 0.000000000000000000e+00 1.295436836661738034e-01 -2.127318463673615601e-01 -1.209631139767138736e-01 -1.276835928418633137e-01 -5.259925386112684204e-02 2.510032123589460151e-01 -3.833063550124815762e-03 -1.679174574076397475e-01 3.941957217416944964e-03 -1.707389105386759587e-01 7.800666405160228134e-02 -1.394829495708055367e-01 1.221799980832919963e-01 1.275401428775591317e-01 2.633434927905099476e-01 -1.965905858756006874e-01 -1.465258343456912193e-01 1.288955333620679378e-01 5.771530007848383464e-02 -9.190082148073309282e-03 -1.278349900401039990e-02 -1.023320618185545872e-01 5.605021766016447804e-02 4.911789880680429987e-01 -2.314999188473325017e-02 1.923996395690705588e-02 1.325319233989937784e-01 -3.750256301527846864e-02 3.091107517850041550e-02 1.913960088636105783e-01 -6.364375072591060140e-03 2.086262791007866164e-03 -2.765970833458858066e-02 -5.424148914210949295e-03 1.035476934613968093e-02 -6.000341107115756412e-01 -7.965304182073010275e-02 4.759937398545793091e-02 -1.873559347244856399e-01 -2.121488218358727196e-01 2.956126392049391871e-01 -1.704942738596160745e-01 6.715067482682763877e-01 -4.349302844939073043e-01 -2.321966621518989915e-01 2.274744907244110603e+00 1.855498561822794157e+00 1.670669260602681394e+00 2.667426743448208515e-01 -1.979137344360585304e-01 -7.139916257734756355e-01 0.000000000000000000e+00 0.000000000000000000e+00 0.000000000000000000e+00 -1.186235557854251533e-15 9.969505595960354300e-16 0.000000000000000000e+00 1.344453708849174910e-15 -1.232322950533363784e-16 0.000000000000000000e+00 1.265703789811750518e-15 -3.121912093718334036e-15 -1.709719628442263162e-15 0.000000000000000000e+00 0.000000000000000000e+00 0.000000000000000000e+00 0.000000000000000000e+00 3.715315600278561572e-15 1.276438026815670117e-14 0.000000000000000000e+00 -2.626488773641491227e-16 1.159648897535801605e-14 1.265703789811750518e-15 -3.121912093718334036e-15 -1.709719628442263162e-15 0.000000000000000000e+00 1.444616177197546086e-15 2.037037337289612128e-15 0.000000000000000000e+00 1.443794052208965741e-15 1.470901538725347049e-14 0.000000000000000000e+00 -1.510307778774615505e-15 -3.709018963513151670e-15 1.265703789811750518e-15 -3.121912093718334036e-15 -1.709719628442263162e-15 0.000000000000000000e+00 0.000000000000000000e+00 0.000000000000000000e+00 0.000000000000000000e+00 -4.686338714873369657e-16 9.769231471332376720e-15 0.000000000000000000e+00 5.462852693901736330e-15 8.376148747006729287e-15 1.265703789811750518e-15 -3.121912093718334036e-15 -1.709719628442263162e-15 0.000000000000000000e+00 0.000000000000000000e+00 0.000000000000000000e+00 0.000000000000000000e+00 -3.230561492018479212e-15 7.274915766833359546e-15 0.000000000000000000e+00 4.419017333478338841e-15 1.373466630790213236e-15 2.249754112234745862e-01 -1.796679883227080832e-01 -1.433895140916107980e-01 -3.626183649839023193e-01 7.447205631799908021e-01 9.152694237864314464e-02 -4.044658498163677507e+00 1.347941941717871739e+00 -3.932258591321446062e+00 2.770537909093726547e-01 -4.573179120915538687e-01 1.662316096605824245e-01 0.000000000000000000e+00 0.000000000000000000e+00 0.000000000000000000e+00 -3.293560825106520743e-15 -7.479314264919167657e-16 0.000000000000000000e+00 -1.294917805606283336e-15 -1.038018943186841712e-15 0.000000000000000000e+00 -4.132149725037468480e-15 1.681695967311878396e-15 -3.331579916408378231e-16 0.000000000000000000e+00 0.000000000000000000e+00 0.000000000000000000e+00 0.000000000000000000e+00 -3.259376238644475467e-15 -1.026244323701827516e-14 0.000000000000000000e+00 7.176663624431945685e-16 1.559470448072754427e-15 -4.132149725037468480e-15 1.681695967311878396e-15 -3.331579916408378231e-16 0.000000000000000000e+00 5.711376158284659462e-16 -2.422648726787669513e-16 0.000000000000000000e+00 -1.273166402956660726e-15 -1.271873405436453147e-15 0.000000000000000000e+00 -2.757925553483948417e-15 5.071837773988478174e-16 -4.132149725037468480e-15 1.681695967311878396e-15 -3.331579916408378231e-16 0.000000000000000000e+00 0.000000000000000000e+00 0.000000000000000000e+00 0.000000000000000000e+00 4.698264900398289413e-15 4.933412445197623249e-15 0.000000000000000000e+00 -5.474490184596618446e-16 2.577596177941873153e-15 -4.132149725037468480e-15 1.681695967311878396e-15 -3.331579916408378231e-16 0.000000000000000000e+00 0.000000000000000000e+00 0.000000000000000000e+00 0.000000000000000000e+00 -1.825937427970872174e-15 1.341089852776616189e-16 0.000000000000000000e+00 -2.410636821065728444e-15 -1.146113159265371728e-15
